M48
METRIC,0000.00
T01C0.3
T02C0.9
T03C1.5
T04C3.3
%
T01
X+000082Y-000215
X-000133Y-000074
X-000414Y+000123
X-000410Y+000295
X-000419Y+000487
X-000422Y+000649
X+000001Y+000649
X-000546Y+001168
X-000720Y+001185
X-000425Y+001601
X-000553Y+001838
X-000730Y+001876
X-001057Y+001597
X-001434Y+001150
X-001434Y+000396
X-000972Y+000341
X-001410Y-000389
X-000667Y-000665
X-000207Y-000841
T02
X+000000Y+001575
X-000127Y-001575
X+000127Y-001575
T03
X+001345Y+001435
X-001345Y+001435
X-001345Y-001435
X+001345Y-001435
T04
X+000675Y+001655
X-000675Y-001655
T00
M30
