M48
METRIC,0000.00
T01C0.3
T02C1.2
T03C1.5
T04C1.8
T05C3.3
%
T01
X+000497Y-000690
X+000346Y-000683
X-000207Y-000841
X-000667Y-000665
X-001512Y-000393
X-001398Y+000394
X-000854Y+000340
X-000672Y+000528
X-000276Y+000650
X+000001Y+000649
X+000130Y+000531
X+000610Y+000535
X-000443Y+001605
X-000911Y+001377
X-001165Y+001715
X-001200Y+001945
X-001534Y+001211
T02
X+000000Y-001473
X+000000Y+001473
T03
X+001440Y+001810
X-001440Y+001810
X-001440Y-001810
X+001440Y-001810
T04
X+000712Y+001473
T05
X+000000Y+002050
X+000000Y-002050
T00
M30
