G04 DipTrace 3.2.0.1*
G04 Нижняямаска.gbr*
%MOMM*%
G04 #@! TF.FileFunction,Soldermask,Bot*
G04 #@! TF.Part,Single*
%ADD32C,1.8*%
%ADD38C,2.6*%
%ADD40R,1.0X1.9*%
%ADD42R,0.8X1.3*%
%ADD46R,1.2X0.8*%
%ADD48R,1.2X1.3*%
%ADD50C,6.2*%
%ADD52C,3.0*%
%ADD54R,0.8X0.8*%
%ADD56R,1.7X1.5*%
%FSLAX35Y35*%
G04*
G71*
G90*
G75*
G01*
G04 BotMask*
%LPD*%
D56*
X-1281083Y-845053D3*
Y-655053D3*
X-677353Y771613D3*
Y961613D3*
D54*
X-964903Y241140D3*
X-1184903D3*
X-968517Y430920D3*
X-1188517D3*
D52*
X1440000Y1810000D3*
D50*
X0Y2050000D3*
Y-2050000D3*
D52*
X1440000Y-1810000D3*
X-1440000Y1810000D3*
Y-1810000D3*
D48*
X-650000Y-1185000D3*
Y-1015000D3*
X-1343513Y925657D3*
Y755657D3*
X-390000Y-1015000D3*
Y-1185000D3*
X-673877Y-85557D3*
Y84443D3*
X390000Y-1015000D3*
Y-1185000D3*
X650000Y-1015000D3*
Y-1185000D3*
X-1344943Y79413D3*
Y-90587D3*
D46*
X-105000Y-980000D3*
X105000D3*
X-105000Y-890000D3*
X105000D3*
D42*
X-904957Y-381953D3*
X-999957D3*
X-1094957D3*
Y-111953D3*
X-904957D3*
D40*
X-278000Y1026900D3*
X-151000D3*
X-24000D3*
X103000D3*
X230000D3*
X357000D3*
X484000D3*
X611000D3*
X-278000Y-533100D3*
X-151000D3*
X-24000D3*
X103000D3*
X230000D3*
X357000D3*
X484000D3*
D38*
X0Y-1473000D3*
Y1473000D3*
D32*
X712000D3*
M02*
