G04 DipTrace 3.2.0.1*
G04 Нижний.gbr*
%MOMM*%
G04 #@! TF.FileFunction,Copper,L2,Bot*
G04 #@! TF.Part,Single*
%ADD31C,0.3*%
%ADD33C,1.5*%
%ADD34C,3.3*%
%ADD35C,1.2*%
G04 #@! TA.AperFunction,Conductor*
%ADD10C,0.25*%
%ADD14C,0.5*%
%ADD16C,0.4*%
%ADD18R,1.5X1.3*%
%ADD20R,0.6X0.6*%
G04 #@! TA.AperFunction,ComponentPad*
%ADD21C,2.8*%
%ADD22C,6.0*%
%ADD23R,1.0X1.1*%
%ADD24R,1.0X0.6*%
%ADD27R,0.6X1.1*%
%ADD28R,0.8X1.7*%
G04 #@! TA.AperFunction,ComponentPad*
%ADD29C,2.4*%
G04 #@! TA.AperFunction,ViaPad*
%ADD30C,1.0*%
%FSLAX35Y35*%
G04*
G71*
G90*
G75*
G01*
G04 Bottom*
%LPD*%
X497407Y-689847D2*
D14*
Y-533100D1*
D10*
X484000D1*
X-276233Y649540D2*
D16*
X1280Y649200D1*
X-1512203Y-392607D2*
X-1273233D1*
X-1105610D1*
D10*
X-1094957Y-381953D1*
X-1273233Y-392607D2*
D16*
Y-647203D1*
D10*
X-1281083Y-655053D1*
X345873Y-683267D2*
D14*
Y-544227D1*
D10*
X357000Y-533100D1*
X-105000Y-890000D2*
X-130003D1*
X-179310Y-840693D1*
X-206500D1*
X-677353Y961613D2*
Y1073227D1*
X-814890Y1210763D1*
X-1534010D1*
X105000Y-890000D2*
Y-899210D1*
X197367D1*
X255877Y-957720D1*
Y-1147320D1*
X293557Y-1185000D1*
X390000D1*
X105000Y-980000D2*
Y-1198627D1*
X245540Y-1339167D1*
X614103D1*
X652527Y-1300743D1*
Y-1187527D1*
X650000Y-1185000D1*
X230000Y-533100D2*
X213167D1*
Y-769023D1*
X270170Y-826027D1*
X322567D1*
X384493Y-887953D1*
Y-1009493D1*
X390000Y-1015000D1*
X103000Y-533100D2*
Y-306540D1*
X142140Y-267400D1*
X607247D1*
X646943Y-307097D1*
Y-1011943D1*
X650000Y-1015000D1*
X-105000Y-980000D2*
X-183297D1*
X-228360Y-1025063D1*
Y-1164130D1*
X-249230Y-1185000D1*
X-390000D1*
Y-1015000D2*
Y-778140D1*
X-324597Y-712737D1*
X-62813D1*
X-24000Y-673923D1*
Y-533100D1*
X0Y-2050000D2*
X-19827D1*
D14*
X-652130Y-1417697D1*
Y-1187130D1*
D10*
X-650000Y-1185000D1*
X-151000Y1026900D2*
Y1161083D1*
X-202260Y1212343D1*
X-417017D1*
X-806047Y1601373D1*
Y1635763D1*
X-906793Y1736510D1*
X-1059937D1*
X-1081193Y1715257D1*
X-1164757D1*
X-278000Y1026900D2*
Y1096327D1*
X-455693D1*
X-736337Y1376970D1*
X-911470D1*
X230000Y1026900D2*
Y1564203D1*
X125147Y1669057D1*
X-190103D1*
X-243117Y1616043D1*
X-442690D1*
Y1605263D1*
X103000Y1026900D2*
Y1162940D1*
X46613Y1219327D1*
X-64053D1*
X-158240Y1313513D1*
X-348660D1*
X-980250Y1945103D1*
X-1199720D1*
X-904957Y-111953D2*
Y-68630D1*
X-751883Y84443D1*
X-673877D1*
X67143D1*
X484000Y501300D1*
Y1026900D1*
X-999957Y-381953D2*
Y-516960D1*
X-929363D1*
X-904957Y-492553D1*
Y-381953D1*
X-802430D1*
X-673877Y-253400D1*
Y-85557D1*
X-1000423Y-516960D2*
Y-738890D1*
X-949413Y-789900D1*
X-724313Y-1015000D1*
X-650000D1*
X-1281083Y-845053D2*
X-1004567D1*
X-949413Y-789900D1*
X-1094957Y-111953D2*
X-1323577D1*
X-1344943Y-90587D1*
Y79413D2*
Y192787D1*
X-1296130Y241600D1*
X-1185363D1*
X-1184903Y241140D1*
X-1344943Y79413D2*
X-1154720D1*
X-1148763Y73457D1*
X-922007D1*
X-713660Y281803D1*
X75777D1*
X368160Y574187D1*
Y1038060D1*
X357000Y1026900D1*
X-964903Y241140D2*
Y328807D1*
Y427307D1*
X-968517Y430920D1*
X-853570Y339783D2*
X-953927D1*
X-964903Y328807D1*
X-278000Y-533100D2*
Y-603847D1*
X-400773D1*
X-462317Y-665390D1*
X-667097D1*
X-1188517Y430920D2*
X-1241093D1*
X-1268063Y457890D1*
Y545240D1*
X-1247243Y566060D1*
X-1026117D1*
X-889027Y703150D1*
X-820563Y771613D1*
X-677353D1*
X-24000Y1026900D2*
Y858863D1*
X-104987Y777877D1*
X-671090D1*
X-677353Y771613D1*
X-1343513Y925657D2*
X-1111533D1*
X-889027Y703150D1*
X-1398027Y394067D2*
Y583107D1*
X-1344283Y636850D1*
Y754887D1*
X-1343513Y755657D1*
X-672423Y527573D2*
X126453D1*
X129913Y531033D1*
X611000Y1026900D2*
Y535773D1*
X609917Y534690D1*
D30*
X497407Y-689847D3*
X-206500Y-840693D3*
X345873Y-683267D3*
X-911470Y1376970D3*
X-1164757Y1715257D3*
X-442690Y1605263D3*
X-1199720Y1945103D3*
X-667097Y-665390D3*
X-853570Y339783D3*
X1280Y649200D3*
X-276233Y649540D3*
X-672423Y527573D3*
X129913Y531033D3*
X609917Y534690D3*
X-1512203Y-392607D3*
X-1534010Y1210763D3*
X-1398027Y394067D3*
D18*
X-1281083Y-845053D3*
Y-655053D3*
X-677353Y771613D3*
Y961613D3*
D20*
X-964903Y241140D3*
X-1184903D3*
X-968517Y430920D3*
X-1188517D3*
D21*
X1440000Y1810000D3*
D22*
X0Y2050000D3*
Y-2050000D3*
D21*
X1440000Y-1810000D3*
X-1440000Y1810000D3*
Y-1810000D3*
D23*
X-650000Y-1185000D3*
Y-1015000D3*
X-1343513Y925657D3*
Y755657D3*
X-390000Y-1015000D3*
Y-1185000D3*
X-673877Y-85557D3*
Y84443D3*
X390000Y-1015000D3*
Y-1185000D3*
X650000Y-1015000D3*
Y-1185000D3*
X-1344943Y79413D3*
Y-90587D3*
D24*
X-105000Y-980000D3*
X105000D3*
X-105000Y-890000D3*
X105000D3*
D27*
X-904957Y-381953D3*
X-999957D3*
X-1094957D3*
Y-111953D3*
X-904957D3*
D28*
X-278000Y1026900D3*
X-151000D3*
X-24000D3*
X103000D3*
X230000D3*
X357000D3*
X484000D3*
X611000D3*
X-278000Y-533100D3*
X-151000D3*
X-24000D3*
X103000D3*
X230000D3*
X357000D3*
X484000D3*
D29*
X0Y-1473000D3*
Y1473000D3*
G04 Bottom Clear*
%LPC*%
D31*
X497407Y-689847D3*
X-206500Y-840693D3*
X345873Y-683267D3*
X-911470Y1376970D3*
X-1164757Y1715257D3*
X-442690Y1605263D3*
X-1199720Y1945103D3*
X-667097Y-665390D3*
X-853570Y339783D3*
X1280Y649200D3*
X-276233Y649540D3*
X-672423Y527573D3*
X129913Y531033D3*
X609917Y534690D3*
X-1512203Y-392607D3*
X-1534010Y1210763D3*
X-1398027Y394067D3*
D33*
X1440000Y1810000D3*
D34*
X0Y2050000D3*
Y-2050000D3*
D33*
X1440000Y-1810000D3*
X-1440000Y1810000D3*
Y-1810000D3*
D35*
X0Y-1473000D3*
Y1473000D3*
M02*
