G04 DipTrace 3.2.0.1*
G04 Верхний.gbr*
%MOMM*%
G04 #@! TF.FileFunction,Copper,L1,Top*
G04 #@! TF.Part,Single*
%AMOUTLINE0*
4,1,4,
-0.0733,-1.8343,
-1.52953,1.01517,
0.0733,1.8343,
1.52953,-1.01517,
-0.0733,-1.8343,
0*%
%AMOUTLINE3*
4,1,4,
0.7496,-0.3758,
0.75043,0.3742,
-0.7496,0.3758,
-0.75043,-0.3742,
0.7496,-0.3758,
0*%
%ADD15C,0.3*%
%ADD35C,1.5*%
%ADD36C,3.3*%
%ADD37C,0.9*%
G04 #@! TA.AperFunction,Conductor*
%ADD10C,0.25*%
%ADD14C,0.6*%
%ADD17C,0.35*%
%ADD18C,0.5*%
%ADD19C,0.7*%
G04 #@! TA.AperFunction,ComponentPad*
%ADD23C,2.8*%
%ADD24C,6.0*%
%ADD25R,1.0X1.1*%
G04 #@! TA.AperFunction,ComponentPad*
%ADD27C,2.3*%
%ADD28R,4.2X3.2*%
%ADD29R,0.7X1.1*%
G04 #@! TA.AperFunction,ViaPad*
%ADD34C,1.0*%
%ADD66OUTLINE0*%
%ADD69OUTLINE3*%
%FSLAX35Y35*%
G04*
G71*
G90*
G75*
G01*
G04 Top*
%LPD*%
X1051970Y-1541947D2*
D14*
Y-1464347D1*
X847950Y-1260327D1*
Y-1134087D1*
X393920Y-680057D1*
Y-534143D1*
X1280Y-141503D1*
Y649200D1*
X-551760Y1474373D2*
D15*
X-254960D1*
X-154333Y1575000D1*
X0D1*
D14*
Y1585410D1*
X605410D1*
D10*
X675000Y1655000D1*
X1280Y649200D2*
D14*
X0Y1575000D1*
X81533Y-215187D2*
X1280Y-141503D1*
X-940000Y755000D2*
D10*
Y763623D1*
D17*
X-582707D1*
D10*
X-468450Y649367D1*
X-421980D1*
X-940000Y755000D2*
D17*
Y673220D1*
X-1409827Y203393D1*
Y-388883D1*
D10*
X-1431383D1*
D17*
Y-616383D1*
D10*
X-1437500Y-622500D1*
Y-1037500D2*
Y-622500D1*
X553313Y-1796783D2*
D14*
X474890Y-1718357D1*
Y-1064650D1*
X246580Y-836340D1*
Y-681867D1*
D15*
Y-665510D1*
D18*
X-131203Y-287727D1*
Y-73790D1*
D15*
Y1199570D1*
X-283683Y1352050D1*
X-918313D1*
Y1464330D1*
X-928763Y1474780D1*
X-206500Y-840693D2*
D10*
X246580D1*
Y-836340D1*
X-206500Y-840693D2*
X-687570D1*
X-773263Y-755000D1*
X-940000D1*
X-1437500Y1037500D2*
X-1429197D1*
Y1149010D1*
X-1383027Y1195180D1*
X-1075183D1*
X-918313Y1352050D1*
X-1437500Y622500D2*
Y1037500D1*
X-1434233Y1150403D2*
X-1383027Y1195180D1*
X553313Y-1796783D2*
D19*
Y-1727423D1*
X480523Y-1654630D1*
X-26370D1*
D10*
X0Y-1681000D1*
X-133117Y-73790D2*
D15*
X-131203D1*
X-419263Y487223D2*
D10*
X-1016003D1*
X-1222500Y280727D1*
Y-622500D1*
X-940000Y-925000D2*
Y-1088710D1*
X-996297Y-1145007D1*
X-1185490D1*
X-1222500Y-1107997D1*
Y-1037500D1*
Y-622500D1*
X-553437Y1838343D2*
Y1730323D1*
X-551487Y1728373D1*
X-410337Y295387D2*
X-387540D1*
X-295473Y387453D1*
Y918237D1*
X-545530Y1168293D1*
X-730460Y1876063D2*
Y1856817D1*
X-838360D1*
X-928487Y1766690D1*
Y1728783D1*
X-413637Y122710D2*
X-369450D1*
X-218670Y273490D1*
Y1093543D1*
X-392093Y1266970D1*
X-638933D1*
X-720487Y1185417D1*
X-1056987Y1597400D2*
X-933007D1*
X-928623Y1601783D1*
X-425293Y1601153D2*
X-551407D1*
X-551623Y1601370D1*
X-667097Y-665390D2*
Y36550D1*
X-972023Y341477D1*
X-1222500Y1037500D2*
X-973620D1*
X-949767Y1013647D1*
Y934767D1*
X-940000Y925000D1*
X-1222500Y1037500D2*
Y622500D1*
Y521017D1*
X-1347757Y395760D1*
X-1433563D1*
D34*
X81533Y-215187D3*
X-206500Y-840693D3*
X-413637Y122710D3*
X-730460Y1876063D3*
X-553437Y1838343D3*
X-1056987Y1597400D3*
X-425293Y1601153D3*
X-667097Y-665390D3*
X-972023Y341477D3*
X1280Y649200D3*
X-421980Y649367D3*
X-419263Y487223D3*
X-410337Y295387D3*
X-720487Y1185417D3*
X-1409827Y-388883D3*
X-1434233Y1150403D3*
X-1433563Y395760D3*
X-133117Y-73790D3*
X-545530Y1168293D3*
D66*
X553317Y-1796783D3*
X1051970Y-1541943D3*
D69*
X-928763Y1474780D3*
X-928623Y1601783D3*
X-928487Y1728783D3*
X-551760Y1474373D3*
X-551623Y1601370D3*
X-551487Y1728373D3*
D23*
X1345000Y1435000D3*
D24*
X675000Y1655000D3*
X-675000Y-1655000D3*
D23*
X1345000Y-1435000D3*
X-1345000Y1435000D3*
Y-1435000D3*
D25*
X-940000Y755000D3*
Y925000D3*
Y-925000D3*
Y-755000D3*
D27*
X0Y1575000D3*
X-127000Y-1575000D3*
X127000D3*
D28*
X0Y1681000D3*
Y-1681000D3*
D29*
X-1222500Y1037500D3*
X-1437500D3*
X-1222500Y622500D3*
X-1437500D3*
X-1222500Y-622500D3*
X-1437500D3*
X-1222500Y-1037500D3*
X-1437500D3*
G04 Top Clear*
%LPC*%
D15*
X81533Y-215187D3*
X-206500Y-840693D3*
X-413637Y122710D3*
X-730460Y1876063D3*
X-553437Y1838343D3*
X-1056987Y1597400D3*
X-425293Y1601153D3*
X-667097Y-665390D3*
X-972023Y341477D3*
X1280Y649200D3*
X-421980Y649367D3*
X-419263Y487223D3*
X-410337Y295387D3*
X-720487Y1185417D3*
X-1409827Y-388883D3*
X-1434233Y1150403D3*
X-1433563Y395760D3*
X-133117Y-73790D3*
X-545530Y1168293D3*
D35*
X1345000Y1435000D3*
D36*
X675000Y1655000D3*
X-675000Y-1655000D3*
D35*
X1345000Y-1435000D3*
X-1345000Y1435000D3*
Y-1435000D3*
D37*
X0Y1575000D3*
X-127000Y-1575000D3*
X127000D3*
M02*
