G04 DipTrace 3.2.0.1*
G04 Нижняямаска.gbr*
%MOMM*%
G04 #@! TF.FileFunction,Soldermask,Bot*
G04 #@! TF.Part,Single*
%ADD41R,0.9X1.7*%
%ADD43R,1.7X0.9*%
%ADD45R,0.8X1.3*%
%ADD51C,2.5*%
%ADD53R,1.2X0.8*%
%ADD55R,1.2X1.3*%
%ADD57C,6.2*%
%ADD59C,3.0*%
%ADD61R,0.8X0.8*%
%ADD63R,1.7X1.5*%
%FSLAX35Y35*%
G04*
G71*
G90*
G75*
G01*
G04 BotMask*
%LPD*%
D63*
X-1354667Y-842327D3*
Y-652327D3*
X-1106763Y941523D3*
Y1131523D3*
D61*
X-1052897Y244523D3*
X-1272897D3*
X-1056510Y430920D3*
X-1276510D3*
D59*
X1345000Y1435000D3*
D57*
X675000Y1655000D3*
X-675000Y-1655000D3*
D59*
X1345000Y-1435000D3*
X-1345000Y1435000D3*
Y-1435000D3*
D55*
X-643640Y-1063757D3*
Y-893757D3*
X-1343513Y925657D3*
Y755657D3*
X-390000Y-905000D3*
Y-1075000D3*
X-923040Y-888213D3*
Y-718213D3*
X390000Y-905000D3*
Y-1075000D3*
X650000Y-905000D3*
Y-1075000D3*
X-1388547Y4957D3*
Y-165043D3*
D53*
X-105000Y-980000D3*
X105000D3*
X-105000Y-890000D3*
X105000D3*
D51*
X0Y1575000D3*
X-127000Y-1575000D3*
X127000D3*
D45*
X-999717Y-412413D3*
X-1094717D3*
X-1189717D3*
Y-142413D3*
X-999717D3*
D43*
X-737957Y-319563D3*
Y-209563D3*
Y-99563D3*
Y10437D3*
Y120437D3*
Y235437D3*
Y340437D3*
Y450437D3*
Y560437D3*
Y670437D3*
D41*
X-512957Y850437D3*
X-402957D3*
X-292957D3*
X-182957D3*
X-72957D3*
X37043D3*
X147043D3*
X257043D3*
X367043D3*
X477043D3*
X587043D3*
X697043D3*
X-512957Y-499563D3*
X-402957D3*
X-292957D3*
X-182957D3*
X-72957D3*
X37043D3*
X147043D3*
X257043D3*
X367043D3*
X477043D3*
X587043D3*
X697043D3*
M02*
